<svg width="104" height="104" viewBox="0 0 104 104" fill="none" xmlns="http://www.w3.org/2000/svg" xmlns:xlink="http://www.w3.org/1999/xlink">
<path d="M45.5,74.75L71.5,74.75L71.5,81.25L45.5,81.25L45.5,74.75ZM32.5,74.75L39,74.75L39,81.25L32.5,81.25L32.5,74.75ZM45.5,58.5L71.5,58.5L71.5,65L45.5,65L45.5,58.5ZM32.5,58.5L39,58.5L39,65L32.5,65L32.5,58.5ZM45.5,42.25L71.5,42.25L71.5,48.75L45.5,48.75L45.5,42.25ZM32.5,42.25L39,42.25L39,48.75L32.5,48.75L32.5,42.25Z" fill="#000000"/>
<path d="M81.25,16.25L71.5,16.25L71.5,13C71.5,11.276 70.815,9.623 69.596,8.404C68.377,7.185 66.724,6.5 65,6.5L39,6.5C37.276,6.5 35.623,7.185 34.404,8.404C33.185,9.623 32.5,11.276 32.5,13L32.5,16.25L22.75,16.25C21.026,16.25 19.373,16.935 18.154,18.154C16.935,19.373 16.25,21.026 16.25,22.75L16.25,91C16.25,92.724 16.935,94.377 18.154,95.596C19.373,96.815 21.026,97.5 22.75,97.5L81.25,97.5C82.974,97.5 84.627,96.815 85.846,95.596C87.065,94.377 87.75,92.724 87.75,91L87.75,22.75C87.75,21.026 87.065,19.373 85.846,18.154C84.627,16.935 82.974,16.25 81.25,16.25ZM39,13L65,13L65,26L39,26L39,13ZM81.25,91L22.75,91L22.75,22.75L32.5,22.75L32.5,32.5L71.5,32.5L71.5,22.75L81.25,22.75L81.25,91Z" fill="#000000"/>
</svg>
