<svg width="114" height="100" viewBox="0 0 114 100" fill="none" xmlns="http://www.w3.org/2000/svg" xmlns:xlink="http://www.w3.org/1999/xlink">
<path d="M91.875,50.772C91.574,51.835 92.191,52.941 93.254,53.242C94.316,53.543 95.422,52.926 95.723,51.863L91.875,50.772ZM29.466,80.409C30.5,80.798 31.654,80.276 32.043,79.243C32.433,78.209 31.911,77.055 30.877,76.666L29.466,80.409ZM2.315,39.759C1.211,39.759 0.315,40.654 0.315,41.759C0.315,42.863 1.211,43.759 2.315,43.759L2.315,39.759ZM95.122,43.759C96.227,43.759 97.122,42.863 97.122,41.759C97.122,40.654 96.227,39.759 95.122,39.759L95.122,43.759ZM95.723,51.863C97.948,44.016 97.532,35.78 94.531,28.14L90.808,29.602C93.492,36.435 93.859,43.774 91.875,50.772L95.723,51.863ZM94.531,28.14C91.532,20.504 86.091,13.813 78.894,8.826L76.616,12.113C83.215,16.687 88.122,22.764 90.808,29.602L94.531,28.14ZM78.894,8.826C71.699,3.839 63.034,0.75 53.921,-0.105L53.547,3.878C62.013,4.672 70.015,7.539 76.616,12.113L78.894,8.826ZM53.921,-0.105C44.807,-0.96 35.593,0.451 27.355,3.976L28.928,7.653C36.537,4.398 45.081,3.084 53.547,3.878L53.921,-0.105ZM27.355,3.976C19.116,7.5 12.171,13.004 7.367,19.875L10.646,22.167C14.987,15.956 21.319,10.908 28.928,7.653L27.355,3.976ZM7.367,19.875C2.561,26.751 0.106,34.703 0.332,42.791L4.331,42.68C4.13,35.488 6.307,28.373 10.646,22.167L7.367,19.875ZM0.332,42.791C0.558,50.879 3.453,58.714 8.632,65.374L11.789,62.919C7.104,56.894 4.532,49.872 4.331,42.68L0.332,42.791ZM8.632,65.374C13.808,72.03 21.046,77.234 29.466,80.409L30.877,76.666C23.091,73.73 16.478,68.948 11.789,62.919L8.632,65.374ZM2.315,43.759L95.122,43.759L95.122,39.759L2.315,39.759L2.315,43.759Z" fill="url(#ps_0_152_36)"/>
<path d="M33.07,60.997C33.471,62.026 34.63,62.535 35.66,62.134C36.689,61.734 37.198,60.574 36.798,59.545L33.07,60.997ZM30.854,41.758L28.858,41.638C28.853,41.718 28.853,41.798 28.858,41.877L30.854,41.758ZM48.706,1.643L50.163,0.272C49.785,-0.129 49.258,-0.357 48.706,-0.357C48.155,-0.357 47.628,-0.13 47.25,0.272L48.706,1.643ZM66.549,41.758L68.546,41.876C68.551,41.797 68.551,41.718 68.546,41.639L66.549,41.758ZM63.632,49.064C63.426,50.149 64.139,51.196 65.224,51.402C66.309,51.608 67.356,50.895 67.562,49.81L63.632,49.064ZM77.717,57.582L77.717,55.582C76.75,55.582 75.922,56.274 75.749,57.226C75.577,58.178 76.11,59.116 77.016,59.455L77.717,57.582ZM111.684,70.303L112.386,72.176C113.167,71.884 113.684,71.137 113.684,70.303C113.684,69.469 113.167,68.723 112.386,68.43L111.684,70.303ZM77.717,83.024L77.016,84.897C77.468,85.066 77.966,85.066 78.419,84.897L77.717,83.024ZM43.767,70.303L43.066,68.43C42.285,68.723 41.767,69.469 41.767,70.303C41.767,71.137 42.284,71.883 43.065,72.176L43.767,70.303ZM77.734,57.582L78.436,59.455C79.341,59.116 79.874,58.178 79.702,57.226C79.53,56.274 78.701,55.582 77.734,55.582L77.734,57.582ZM36.798,59.545C34.542,53.754 33.216,47.73 32.851,41.638L28.858,41.877C29.248,48.391 30.666,54.824 33.07,60.997L36.798,59.545ZM32.851,41.877C33.698,27.706 39.739,14.092 50.163,3.013L47.25,0.272C36.229,11.986 29.765,26.469 28.858,41.638L32.851,41.877ZM47.249,3.013C57.67,14.093 63.708,27.707 64.553,41.877L68.546,41.639C67.641,26.47 61.181,11.987 50.163,0.272L47.249,3.013ZM64.553,41.64C64.406,44.127 64.099,46.605 63.632,49.064L67.562,49.81C68.06,47.183 68.389,44.535 68.546,41.876L64.553,41.64ZM77.016,59.455L110.983,72.176L112.386,68.43L78.419,55.709L77.016,59.455ZM110.983,68.43L77.016,81.151L78.419,84.897L112.386,72.176L110.983,68.43ZM78.419,81.151L44.469,68.43L43.065,72.176L77.016,84.897L78.419,81.151ZM44.468,72.176L78.436,59.455L77.033,55.709L43.066,68.43L44.468,72.176ZM77.734,55.582L77.717,55.582L77.717,59.582L77.734,59.582L77.734,55.582Z" fill="url(#ps_0_152_37)"/>
<path d="M61.166,76.097C61.164,74.993 60.266,74.099 59.161,74.102C58.057,74.105 57.164,75.002 57.166,76.107L61.166,76.097ZM59.2,89.945L57.2,89.95C57.201,90.432 57.377,90.898 57.694,91.261L59.2,89.945ZM96.26,89.945L97.763,91.265C98.084,90.9 98.26,90.431 98.26,89.945L96.26,89.945ZM98.26,76.102C98.26,74.998 97.365,74.102 96.26,74.102C95.156,74.102 94.26,74.998 94.26,76.102L98.26,76.102ZM41.759,92.677C41.759,93.782 42.654,94.677 43.759,94.677C44.863,94.677 45.759,93.782 45.759,92.677L41.759,92.677ZM45.759,70.303C45.759,69.198 44.863,68.303 43.759,68.303C42.654,68.303 41.759,69.198 41.759,70.303L45.759,70.303ZM57.166,76.107L57.2,89.95L61.2,89.94L61.166,76.097L57.166,76.107ZM59.2,89.945C57.694,91.261 57.695,91.262 57.696,91.263C57.696,91.264 57.697,91.264 57.697,91.265C57.699,91.266 57.7,91.268 57.701,91.269C57.704,91.272 57.707,91.276 57.71,91.28C57.717,91.287 57.725,91.296 57.735,91.307C57.754,91.328 57.779,91.355 57.81,91.388C57.871,91.453 57.956,91.541 58.065,91.647C58.281,91.86 58.593,92.149 59.003,92.488C59.824,93.167 61.039,94.046 62.678,94.917C65.965,96.664 70.915,98.357 77.718,98.357L77.718,94.357C71.608,94.357 67.299,92.843 64.555,91.385C63.178,90.653 62.186,89.929 61.552,89.405C61.235,89.143 61.008,88.931 60.867,88.794C60.797,88.725 60.749,88.675 60.722,88.646C60.709,88.632 60.701,88.623 60.698,88.62C60.697,88.618 60.697,88.618 60.698,88.62C60.699,88.621 60.699,88.622 60.701,88.623C60.701,88.624 60.702,88.625 60.703,88.626C60.703,88.626 60.704,88.627 60.704,88.627C60.705,88.628 60.706,88.629 59.2,89.945ZM77.718,98.357C84.52,98.357 89.476,96.664 92.768,94.918C94.41,94.047 95.628,93.168 96.451,92.49C96.862,92.152 97.175,91.863 97.392,91.65C97.501,91.544 97.586,91.456 97.647,91.391C97.678,91.358 97.703,91.331 97.723,91.31C97.732,91.3 97.74,91.29 97.747,91.283C97.751,91.279 97.754,91.276 97.756,91.273C97.758,91.271 97.759,91.27 97.76,91.268C97.761,91.268 97.761,91.267 97.762,91.267C97.762,91.266 97.763,91.265 96.26,89.945C94.758,88.625 94.758,88.625 94.759,88.624C94.759,88.623 94.76,88.623 94.76,88.622C94.761,88.621 94.762,88.621 94.762,88.62C94.764,88.618 94.765,88.617 94.765,88.617C94.767,88.615 94.767,88.615 94.765,88.617C94.762,88.62 94.754,88.629 94.741,88.643C94.714,88.672 94.665,88.722 94.594,88.791C94.454,88.929 94.225,89.141 93.907,89.403C93.271,89.928 92.274,90.652 90.894,91.384C88.143,92.843 83.828,94.357 77.718,94.357L77.718,98.357ZM98.26,89.945L98.26,76.102L94.26,76.102L94.26,89.945L98.26,89.945ZM45.759,92.677L45.759,70.303L41.759,70.303L41.759,92.677L45.759,92.677Z" fill="url(#ps_0_152_38)"/>
<defs>
<linearGradient id="ps_0_152_36" x1="48.724" y1="1.652" x2="48.724" y2="78.537" gradientUnits="userSpaceOnUse">
<stop stop-color="#E0E0E0" stop-opacity="0.9"/>
<stop offset="1" stop-color="#76C4FF" stop-opacity="0.9"/>
</linearGradient>
<linearGradient id="ps_0_152_37" x1="71.269" y1="1.643" x2="71.269" y2="83.024" gradientUnits="userSpaceOnUse">
<stop stop-color="#E0E0E0" stop-opacity="0.9"/>
<stop offset="1" stop-color="#76C4FF" stop-opacity="0.9"/>
</linearGradient>
<linearGradient id="ps_0_152_38" x1="70.01" y1="70.303" x2="70.01" y2="96.356" gradientUnits="userSpaceOnUse">
<stop stop-color="#E0E0E0" stop-opacity="0.9"/>
<stop offset="1" stop-color="#76C4FF" stop-opacity="0.9"/>
</linearGradient>
</defs>
</svg>
