<svg width="52" height="52" viewBox="0 0 52 52" fill="none" xmlns="http://www.w3.org/2000/svg" xmlns:xlink="http://www.w3.org/1999/xlink">
<path d="M11.164,40.568L23.481,40.526L50.364,13.899C51.419,12.844 52,11.443 52,9.953C52,8.462 51.419,7.061 50.364,6.006L45.938,1.579C43.828,-0.531 40.146,-0.519 38.053,1.571L11.164,28.203L11.164,40.568ZM41.991,5.526L46.426,9.944L41.969,14.36L37.542,9.936L41.991,5.526ZM16.746,30.531L33.576,13.86L38.003,18.287L21.176,34.952L16.746,34.966L16.746,30.531Z" fill="#000000"/>
<path d="M5.582,51.694L44.657,51.694C47.735,51.694 50.239,49.19 50.239,46.112L50.239,21.919L44.657,27.501L44.657,46.112L14.396,46.112C14.324,46.112 14.248,46.14 14.176,46.14C14.084,46.14 13.992,46.115 13.897,46.112L5.582,46.112L5.582,7.037L24.692,7.037L30.274,1.455L5.582,1.455C2.504,1.455 0,3.959 0,7.037L0,46.112C0,49.19 2.504,51.694 5.582,51.694Z" fill="#000000"/>
</svg>
