<svg width="84" height="80" viewBox="0 0 84 80" fill="none" xmlns="http://www.w3.org/2000/svg" xmlns:xlink="http://www.w3.org/1999/xlink">
<path d="M65.885,41.308C65.604,42.376 66.241,43.47 67.31,43.751C68.378,44.033 69.472,43.395 69.753,42.327L65.885,41.308ZM20.695,65.019C21.718,65.435 22.885,64.941 23.3,63.918C23.715,62.894 23.222,61.728 22.199,61.313L20.695,65.019ZM1.145,32.32C0.04,32.32 -0.855,33.216 -0.855,34.32C-0.855,35.425 0.04,36.32 1.145,36.32L1.145,32.32ZM68.784,36.32C69.888,36.32 70.784,35.425 70.784,34.32C70.784,33.216 69.888,32.32 68.784,32.32L68.784,36.32ZM69.753,42.327C71.392,36.109 71.086,29.584 68.875,23.526L65.117,24.898C67.049,30.191 67.315,35.882 65.885,41.308L69.753,42.327ZM68.875,23.526C66.665,17.47 62.649,12.149 57.322,8.177L54.93,11.383C59.658,14.909 63.185,19.602 65.117,24.898L68.875,23.526ZM57.322,8.177C51.996,4.205 45.576,1.74 38.82,1.058L38.418,5.038C44.473,5.649 50.202,7.856 54.93,11.383L57.322,8.177ZM38.82,1.058C32.064,0.376 25.234,1.502 19.131,4.312L20.803,7.945C26.25,5.438 32.362,4.426 38.418,5.038L38.82,1.058ZM19.131,4.312C13.026,7.122 7.891,11.506 4.344,16.966L7.698,19.145C10.816,14.344 15.357,10.452 20.803,7.945L19.131,4.312ZM4.344,16.966C0.796,22.427 -1.009,28.733 -0.843,35.138L3.156,35.034C3.011,29.455 4.581,23.943 7.698,19.145L4.344,16.966ZM-0.843,35.138C-0.677,41.543 1.453,47.758 5.278,53.051L8.52,50.708C5.155,46.051 3.3,40.614 3.156,35.034L-0.843,35.138ZM5.278,53.051C9.101,58.342 14.455,62.487 20.695,65.019L22.199,61.313C16.626,59.052 11.886,55.366 8.52,50.708L5.278,53.051ZM1.145,36.32L68.784,36.32L68.784,32.32L1.145,32.32L1.145,36.32Z" fill="url(#ps_0_116_6)"/>
<path d="M23.036,49.521C23.412,50.56 24.558,51.097 25.597,50.721C26.636,50.345 27.173,49.198 26.797,48.16L23.036,49.521ZM21.943,34.32L19.946,34.209C19.942,34.283 19.942,34.357 19.946,34.431L21.943,34.32ZM34.954,2.857L36.46,1.541C36.08,1.107 35.531,0.857 34.954,0.857C34.377,0.857 33.828,1.107 33.448,1.541L34.954,2.857ZM47.958,34.32L49.955,34.43C49.959,34.356 49.959,34.283 49.955,34.21L47.958,34.32ZM45.295,39.996C45.103,41.084 45.829,42.121 46.917,42.313C48.005,42.505 49.042,41.778 49.234,40.69L45.295,39.996ZM56.098,46.732L56.098,44.732C55.14,44.732 54.317,45.411 54.134,46.351C53.952,47.291 54.462,48.229 55.35,48.587L56.098,46.732ZM80.853,56.709L81.601,58.564C82.358,58.259 82.853,57.525 82.853,56.709C82.853,55.893 82.358,55.159 81.601,54.854L80.853,56.709ZM56.098,66.686L55.35,68.541C55.829,68.734 56.366,68.734 56.845,68.541L56.098,66.686ZM31.354,56.709L30.607,54.854C29.85,55.159 29.354,55.893 29.354,56.709C29.354,57.525 29.85,58.259 30.606,58.564L31.354,56.709ZM56.11,46.732L56.858,48.587C57.746,48.229 58.256,47.291 58.073,46.351C57.891,45.411 57.068,44.732 56.11,44.732L56.11,46.732ZM26.797,48.16C25.165,43.65 24.204,38.957 23.94,34.209L19.946,34.431C20.232,39.571 21.272,44.648 23.036,49.521L26.797,48.16ZM23.94,34.431C24.554,23.385 28.929,12.787 36.46,4.174L33.448,1.541C25.35,10.804 20.611,22.244 19.946,34.209L23.94,34.431ZM33.448,4.174C40.977,12.788 45.349,23.385 45.961,34.431L49.955,34.21C49.292,22.245 44.556,10.805 36.46,1.541L33.448,4.174ZM45.961,34.211C45.855,36.149 45.632,38.08 45.295,39.996L49.234,40.69C49.599,38.618 49.84,36.528 49.955,34.43L45.961,34.211ZM55.35,48.587L80.106,58.564L81.601,54.854L56.845,44.877L55.35,48.587ZM80.106,54.854L55.35,64.831L56.845,68.541L81.601,58.564L80.106,54.854ZM56.846,64.831L32.102,54.854L30.606,58.564L55.35,68.541L56.846,64.831ZM32.102,58.564L56.858,48.587L55.362,44.877L30.607,54.854L32.102,58.564ZM56.11,44.732L56.098,44.732L56.098,48.732L56.11,48.732L56.11,44.732Z" fill="url(#ps_0_116_7)"/>
<path d="M44.579,61.253C44.576,60.148 43.679,59.255 42.574,59.258C41.47,59.26 40.576,60.158 40.579,61.262L44.579,61.253ZM42.603,72.115L40.603,72.119C40.604,72.577 40.762,73.02 41.051,73.376L42.603,72.115ZM69.613,72.115L71.163,73.379C71.454,73.022 71.613,72.576 71.613,72.115L69.613,72.115ZM71.613,61.258C71.613,60.153 70.718,59.258 69.613,59.258C68.509,59.258 67.613,60.153 67.613,61.258L71.613,61.258ZM29.35,74.258C29.35,75.362 30.245,76.258 31.35,76.258C32.454,76.258 33.35,75.362 33.35,74.258L29.35,74.258ZM33.35,56.709C33.35,55.604 32.454,54.709 31.35,54.709C30.245,54.709 29.35,55.604 29.35,56.709L33.35,56.709ZM40.579,61.262L40.603,72.119L44.603,72.11L44.579,61.253L40.579,61.262ZM42.603,72.115C41.051,73.376 41.052,73.377 41.052,73.378C41.053,73.378 41.053,73.379 41.054,73.379C41.055,73.381 41.056,73.382 41.057,73.384C41.06,73.386 41.062,73.39 41.065,73.393C41.071,73.4 41.078,73.408 41.086,73.418C41.102,73.437 41.122,73.46 41.146,73.488C41.195,73.544 41.261,73.617 41.344,73.705C41.511,73.882 41.749,74.118 42.059,74.395C42.681,74.947 43.597,75.66 44.829,76.365C47.305,77.782 51.019,79.143 56.099,79.143L56.099,75.143C51.769,75.143 48.734,73.991 46.815,72.893C45.85,72.341 45.157,71.796 44.718,71.406C44.499,71.211 44.343,71.055 44.25,70.956C44.204,70.907 44.173,70.872 44.157,70.854C44.149,70.845 44.145,70.841 44.145,70.84C44.145,70.84 44.146,70.841 44.147,70.844C44.148,70.845 44.149,70.846 44.151,70.848C44.152,70.849 44.152,70.849 44.153,70.85C44.153,70.851 44.154,70.852 44.154,70.852C44.155,70.853 44.156,70.854 42.603,72.115ZM56.099,79.143C61.179,79.143 64.897,77.782 67.377,76.366C68.611,75.661 69.529,74.949 70.152,74.397C70.463,74.121 70.702,73.884 70.869,73.708C70.953,73.62 71.019,73.547 71.068,73.491C71.092,73.463 71.112,73.44 71.128,73.421C71.136,73.412 71.143,73.403 71.149,73.396C71.152,73.393 71.154,73.39 71.157,73.387C71.158,73.385 71.159,73.384 71.16,73.383C71.161,73.382 71.161,73.381 71.162,73.381C71.162,73.38 71.163,73.379 69.613,72.115C68.064,70.85 68.065,70.849 68.065,70.849C68.065,70.848 68.066,70.848 68.067,70.847C68.067,70.846 68.068,70.845 68.069,70.844C68.07,70.843 68.071,70.841 68.072,70.84C68.074,70.838 68.075,70.837 68.075,70.837C68.074,70.837 68.07,70.842 68.062,70.851C68.047,70.869 68.015,70.904 67.969,70.954C67.875,71.052 67.719,71.209 67.498,71.404C67.058,71.795 66.362,72.339 65.394,72.892C63.469,73.991 60.43,75.143 56.099,75.143L56.099,79.143ZM71.613,72.115L71.613,61.258L67.613,61.258L67.613,72.115L71.613,72.115ZM33.35,74.258L33.35,56.709L29.35,56.709L29.35,74.258L33.35,74.258Z" fill="url(#ps_0_116_8)"/>
<defs>
<linearGradient id="ps_0_116_6" x1="34.968" y1="2.864" x2="34.968" y2="63.166" gradientUnits="userSpaceOnUse">
<stop stop-color="#004173" stop-opacity="0.9"/>
<stop offset="1" stop-color="#007BD9" stop-opacity="0.9"/>
</linearGradient>
<linearGradient id="ps_0_116_7" x1="51.398" y1="2.857" x2="51.398" y2="66.686" gradientUnits="userSpaceOnUse">
<stop stop-color="#004173" stop-opacity="0.9"/>
<stop offset="1" stop-color="#007BD9" stop-opacity="0.9"/>
</linearGradient>
<linearGradient id="ps_0_116_8" x1="50.482" y1="56.709" x2="50.482" y2="77.143" gradientUnits="userSpaceOnUse">
<stop stop-color="#004173" stop-opacity="0.9"/>
<stop offset="1" stop-color="#007BD9" stop-opacity="0.9"/>
</linearGradient>
</defs>
</svg>
