<svg width="52" height="52" viewBox="0 0 52 52" fill="none" xmlns="http://www.w3.org/2000/svg" xmlns:xlink="http://www.w3.org/1999/xlink">
<path d="M6,4L46,4L46,0L6,0L6,4ZM46,4C47.105,4 48,4.895 48,6L52,6C52,2.686 49.314,0 46,0L46,4ZM48,6L48,46L52,46L52,6L48,6ZM48,46C48,47.105 47.105,48 46,48L46,52C49.314,52 52,49.314 52,46L48,46ZM46,48L6,48L6,52L46,52L46,48ZM6,48C4.895,48 4,47.105 4,46L0,46C0,49.314 2.686,52 6,52L6,48ZM4,46L4,6L0,6L0,46L4,46ZM4,6C4,4.895 4.895,4 6,4L6,0C2.686,0 0,2.686 0,6L4,6Z" fill="#000000"/>
<path d="M28.001,15.333C28.001,14.228 27.105,13.333 26.001,13.333C24.896,13.333 24.001,14.228 24.001,15.333L28.001,15.333ZM24.001,36.666C24.001,37.771 24.896,38.666 26.001,38.666C27.105,38.666 28.001,37.771 28.001,36.666L24.001,36.666ZM15.334,24C14.229,24 13.334,24.895 13.334,26C13.334,27.104 14.229,28 15.334,28L15.334,24ZM36.667,28C37.772,28 38.667,27.104 38.667,26C38.667,24.895 37.772,24 36.667,24L36.667,28ZM24.001,15.333L24.001,36.666L28.001,36.666L28.001,15.333L24.001,15.333ZM15.334,28L36.667,28L36.667,24L15.334,24L15.334,28Z" fill="#000000"/>
</svg>
