<svg width="36" height="22" viewBox="0 0 36 22" fill="none" xmlns="http://www.w3.org/2000/svg" xmlns:xlink="http://www.w3.org/1999/xlink">
<path d="M19.887,19.885C19.387,20.385 18.709,20.666 18.002,20.666C17.294,20.666 16.616,20.385 16.116,19.885L1.031,4.8C0.776,4.554 0.573,4.259 0.433,3.934C0.294,3.609 0.22,3.259 0.217,2.905C0.214,2.551 0.281,2.199 0.415,1.872C0.549,1.544 0.747,1.246 0.998,0.996C1.248,0.746 1.546,0.548 1.874,0.413C2.201,0.279 2.553,0.212 2.907,0.215C3.261,0.218 3.611,0.292 3.936,0.431C4.261,0.571 4.556,0.774 4.802,1.029L18.002,14.229L31.202,1.029C31.705,0.543 32.378,0.274 33.077,0.28C33.776,0.287 34.445,0.567 34.94,1.061C35.434,1.556 35.715,2.225 35.721,2.924C35.727,3.623 35.458,4.297 34.972,4.8L19.887,19.885Z" clip-rule="evenodd" fill-rule="evenodd" fill="#000000"/>
</svg>
