<svg width="48" height="46" viewBox="0 0 48 46" fill="none" xmlns="http://www.w3.org/2000/svg" xmlns:xlink="http://www.w3.org/1999/xlink">
<path d="M28.5,38.429L22.5,38.429C22.102,38.429 21.721,38.602 21.439,38.91C21.158,39.218 21,39.636 21,40.071L21,43.357C21,43.793 21.158,44.211 21.439,44.519C21.721,44.827 22.102,45 22.5,45L28.5,45C28.898,45 29.279,44.827 29.561,44.519C29.842,44.211 30,43.793 30,43.357L30,40.071C30,39.636 29.842,39.218 29.561,38.91C29.279,38.602 28.898,38.429 28.5,38.429ZM16.5,31.857L12,31.857L12,0.643C12,0.207 11.842,-0.211 11.561,-0.519C11.279,-0.827 10.898,-1 10.5,-1L7.5,-1C7.102,-1 6.721,-0.827 6.439,-0.519C6.158,-0.211 6,0.207 6,0.643L6,31.857L1.5,31.857C0.17,31.857 -0.503,33.627 0.442,34.661L7.942,44.518C8.223,44.826 8.604,44.999 9.002,44.999C9.4,44.999 9.781,44.826 10.062,44.518L17.562,34.661C18.502,33.629 17.833,31.857 16.5,31.857ZM40.5,12.143L22.5,12.143C22.102,12.143 21.721,12.316 21.439,12.624C21.158,12.932 21,13.35 21,13.786L21,17.071C21,17.507 21.158,17.925 21.439,18.233C21.721,18.541 22.102,18.714 22.5,18.714L40.5,18.714C40.898,18.714 41.279,18.541 41.561,18.233C41.842,17.925 42,17.507 42,17.071L42,13.786C42,13.35 41.842,12.932 41.561,12.624C41.279,12.316 40.898,12.143 40.5,12.143ZM34.5,25.286L22.5,25.286C22.102,25.286 21.721,25.459 21.439,25.767C21.158,26.075 21,26.493 21,26.929L21,30.214C21,30.65 21.158,31.068 21.439,31.376C21.721,31.684 22.102,31.857 22.5,31.857L34.5,31.857C34.898,31.857 35.279,31.684 35.561,31.376C35.842,31.068 36,30.65 36,30.214L36,26.929C36,26.493 35.842,26.075 35.561,25.767C35.279,25.459 34.898,25.286 34.5,25.286ZM46.5,-1L22.5,-1C22.102,-1 21.721,-0.827 21.439,-0.519C21.158,-0.211 21,0.207 21,0.643L21,3.929C21,4.364 21.158,4.782 21.439,5.09C21.721,5.398 22.102,5.571 22.5,5.571L46.5,5.571C46.898,5.571 47.279,5.398 47.561,5.09C47.842,4.782 48,4.364 48,3.929L48,0.643C48,0.207 47.842,-0.211 47.561,-0.519C47.279,-0.827 46.898,-1 46.5,-1Z" fill="#000000"/>
</svg>
