<svg width="50" height="44" viewBox="0 0 50 44" fill="none" xmlns="http://www.w3.org/2000/svg" xmlns:xlink="http://www.w3.org/1999/xlink">
<path d="M3.125,40.625C3.125,42.354 4.521,43.75 6.25,43.75L43.75,43.75C45.479,43.75 46.875,42.354 46.875,40.625L46.875,12.5L3.125,12.5L3.125,40.625ZM18.75,19.922C18.75,19.277 19.277,18.75 19.922,18.75L30.078,18.75C30.723,18.75 31.25,19.277 31.25,19.922L31.25,20.703C31.25,21.348 30.723,21.875 30.078,21.875L19.922,21.875C19.277,21.875 18.75,21.348 18.75,20.703L18.75,19.922ZM46.875,0L3.125,0C1.396,0 0,1.396 0,3.125L0,7.813C0,8.672 0.703,9.375 1.563,9.375L48.438,9.375C49.297,9.375 50,8.672 50,7.813L50,3.125C50,1.396 48.604,0 46.875,0Z" fill="#000000"/>
</svg>
