<svg width="48" height="48" viewBox="0 0 48 48" fill="none" xmlns="http://www.w3.org/2000/svg" xmlns:xlink="http://www.w3.org/1999/xlink">
<path d="M46.737,7.775L24.584,0.098C24.205,-0.033 23.795,-0.033 23.416,0.098L1.262,7.775C0.895,7.902 0.575,8.147 0.348,8.473C0.122,8.8 0,9.193 0,9.596L0,28.786C0,29.295 0.195,29.783 0.541,30.143C0.887,30.503 1.357,30.705 1.846,30.705C2.336,30.705 2.805,30.503 3.152,30.143C3.498,29.783 3.692,29.295 3.692,28.786L3.692,12.258L11.444,14.943C9.384,18.401 8.729,22.568 9.623,26.528C10.516,30.488 12.885,33.918 16.209,36.064C12.055,37.758 8.465,40.821 5.838,45.01C5.702,45.221 5.607,45.458 5.559,45.707C5.512,45.957 5.512,46.214 5.561,46.463C5.61,46.712 5.705,46.949 5.843,47.159C5.98,47.369 6.157,47.549 6.362,47.688C6.567,47.827 6.796,47.922 7.037,47.968C7.277,48.014 7.524,48.01 7.763,47.956C8.002,47.902 8.229,47.799 8.429,47.653C8.629,47.507 8.8,47.321 8.931,47.106C12.408,41.56 17.901,38.382 24,38.382C30.099,38.382 35.591,41.56 39.069,47.106C39.34,47.525 39.758,47.815 40.233,47.916C40.709,48.016 41.203,47.918 41.609,47.642C42.015,47.367 42.301,46.936 42.404,46.444C42.508,45.951 42.42,45.436 42.161,45.01C39.535,40.821 35.93,37.758 31.79,36.064C35.111,33.918 37.478,30.491 38.371,26.533C39.264,22.576 38.612,18.412 36.556,14.955L46.737,11.428C47.105,11.301 47.425,11.057 47.651,10.73C47.878,10.403 48,10.01 48,9.607C48,9.205 47.878,8.812 47.651,8.485C47.425,8.158 47.105,7.914 46.737,7.787L46.737,7.775ZM35.077,23.029C35.077,24.849 34.662,26.644 33.867,28.265C33.071,29.887 31.916,31.289 30.498,32.357C29.08,33.425 27.438,34.128 25.708,34.409C23.978,34.69 22.208,34.54 20.544,33.972C18.881,33.404 17.37,32.434 16.137,31.142C14.903,29.85 13.982,28.272 13.449,26.538C12.916,24.804 12.786,22.964 13.069,21.167C13.353,19.371 14.042,17.67 15.081,16.204L23.416,19.083C23.795,19.214 24.205,19.214 24.584,19.083L32.919,16.204C34.321,18.181 35.078,20.573 35.077,23.029ZM24,15.25L7.685,9.596L24,3.941L40.315,9.596L24,15.25Z" fill="#000000"/>
</svg>
