<svg width="46" height="52" viewBox="0 0 46 52" fill="none" xmlns="http://www.w3.org/2000/svg" xmlns:xlink="http://www.w3.org/1999/xlink">
<path d="M22,28L34.5,28L34.5,40.5L22,40.5L22,28ZM39.5,5.5L37,5.5L37,0.5L32,0.5L32,5.5L12,5.5L12,0.5L7,0.5L7,5.5L4.5,5.5C1.75,5.5 -0.5,7.75 -0.5,10.5L-0.5,45.5C-0.5,48.25 1.75,50.5 4.5,50.5L39.5,50.5C42.25,50.5 44.5,48.25 44.5,45.5L44.5,10.5C44.5,7.75 42.25,5.5 39.5,5.5ZM39.5,10.5L39.5,15.5L4.5,15.5L4.5,10.5L39.5,10.5ZM4.5,45.5L4.5,20.5L39.5,20.5L39.5,45.5L4.5,45.5Z" fill="#000000"/>
</svg>
