<svg width="38" height="46" viewBox="0 0 38 46" fill="none" xmlns="http://www.w3.org/2000/svg" xmlns:xlink="http://www.w3.org/1999/xlink">
<path d="M33.616,-1L4.386,-1C3.223,-1 2.108,-0.481 1.286,0.444C0.463,1.368 0.001,2.621 0.001,3.929L0.001,40.071C0.001,41.379 0.463,42.632 1.286,43.556C2.108,44.481 3.223,45 4.386,45L33.616,45C34.778,45 35.894,44.481 36.716,43.556C37.538,42.632 38,41.379 38,40.071L38,3.929C38,2.621 37.538,1.368 36.716,0.444C35.894,-0.481 34.778,-1 33.616,-1ZM20.462,2.286L20.462,10.5L18.708,7.871C18.572,7.667 18.396,7.502 18.193,7.388C17.99,7.274 17.766,7.214 17.539,7.214C17.312,7.214 17.089,7.274 16.886,7.388C16.683,7.502 16.506,7.667 16.37,7.871L14.616,10.5L14.616,2.286L20.462,2.286ZM2.924,40.071L2.924,3.929C2.924,3.493 3.078,3.075 3.352,2.767C3.626,2.459 3.998,2.286 4.386,2.286L5.847,2.286L5.847,41.714L4.386,41.714C3.998,41.714 3.626,41.541 3.352,41.233C3.078,40.925 2.924,40.507 2.924,40.071ZM35.077,40.071C35.077,40.507 34.923,40.925 34.649,41.233C34.375,41.541 34.003,41.714 33.616,41.714L8.77,41.714L8.77,2.286L11.693,2.286L11.693,15.429C11.693,15.773 -0.177,21.72 0.002,22C0.181,22.28 12.402,16.878 12.693,16.987C12.984,17.096 13.298,17.1 13.59,16.997C13.883,16.894 14.14,16.69 14.324,16.414L17.539,11.601L20.754,16.414C20.939,16.69 21.195,16.894 21.488,16.997C21.781,17.1 22.095,17.096 22.386,16.987C22.677,16.878 22.93,16.669 23.109,16.389C23.289,16.109 23.385,15.773 23.385,15.429L23.385,2.286L33.616,2.286C34.003,2.286 34.375,2.459 34.649,2.767C34.923,3.075 35.077,3.493 35.077,3.929L35.077,40.071Z" fill="#000000"/>
</svg>
