<svg width="70" height="68" viewBox="0 0 70 68" fill="none" xmlns="http://www.w3.org/2000/svg" xmlns:xlink="http://www.w3.org/1999/xlink">
<path d="M26.25,27.354C26.25,25.03 24.291,23.146 21.875,23.146L19.688,23.146C14.855,23.146 10.938,26.914 10.938,31.563L10.938,37.875C10.938,42.524 14.855,46.292 19.688,46.292L21.875,46.292C24.291,46.292 26.25,44.407 26.25,42.084L26.25,27.354ZM50.312,46.292C55.146,46.292 59.062,42.524 59.062,37.875L59.062,31.563C59.062,26.914 55.146,23.146 50.312,23.146L48.125,23.146C45.709,23.146 43.75,25.03 43.75,27.354L43.75,42.084C43.75,44.407 45.709,46.292 48.125,46.292L50.312,46.292ZM35,0C15.474,0 0.626,15.627 0,33.667L0,35.771C0,36.934 0.979,37.875 2.188,37.875L4.375,37.875C5.584,37.875 6.563,36.934 6.563,35.771L6.563,33.667C6.563,18.584 19.32,6.313 35,6.313C50.68,6.313 63.438,18.584 63.438,33.667L63.421,33.667C63.432,33.986 63.438,55.461 63.438,55.461C63.438,58.532 60.849,61.021 57.657,61.021L43.75,61.021C43.75,57.535 40.812,54.709 37.188,54.709L32.812,54.709C29.188,54.709 26.25,57.535 26.25,61.021C26.25,64.507 29.188,67.334 32.812,67.334L57.657,67.334C64.474,67.334 70,62.018 70,55.461L70,33.667C69.374,15.627 54.526,0 35,0Z" fill="#E0E0E0"/>
</svg>
