<svg width="108" height="108" viewBox="0 0 108 108" fill="none" xmlns="http://www.w3.org/2000/svg" xmlns:xlink="http://www.w3.org/1999/xlink">
<path d="M54,0C58.957,0 63.738,0.633 68.344,1.898C72.949,3.164 77.238,4.992 81.211,7.383C85.184,9.773 88.822,12.586 92.127,15.82C95.432,19.055 98.262,22.693 100.617,26.736C102.973,30.779 104.783,35.086 106.049,39.656C107.314,44.227 107.965,49.008 108,54C108,58.957 107.367,63.738 106.102,68.344C104.836,72.949 103.008,77.238 100.617,81.211C98.227,85.184 95.414,88.822 92.18,92.127C88.945,95.432 85.307,98.262 81.264,100.617C77.221,102.973 72.914,104.783 68.344,106.049C63.773,107.314 58.992,107.965 54,108C49.043,108 44.262,107.367 39.656,106.102C35.051,104.836 30.762,103.008 26.789,100.617C22.816,98.227 19.178,95.414 15.873,92.18C12.568,88.945 9.738,85.307 7.383,81.264C5.027,77.221 3.217,72.914 1.951,68.344C0.686,63.773 0.035,58.992 0,54C0,49.043 0.633,44.262 1.898,39.656C3.164,35.051 4.992,30.762 7.383,26.789C9.773,22.816 12.586,19.178 15.82,15.873C19.055,12.568 22.693,9.738 26.736,7.383C30.779,5.027 35.086,3.217 39.656,1.951C44.227,0.686 49.008,0.035 54,0ZM81,54L54,54L54,20.25L47.25,20.25L47.25,60.75L81,60.75L81,54Z" fill="#4D77C7"/>
</svg>
