<svg width="70" height="70" viewBox="0 0 70 70" fill="none" xmlns="http://www.w3.org/2000/svg" xmlns:xlink="http://www.w3.org/1999/xlink">
<path d="M35,0.063C15.705,0.063 0.063,15.705 0.063,35C0.063,54.294 15.705,69.938 35,69.938C54.294,69.938 69.938,54.294 69.938,35C69.938,15.705 54.294,0.063 35,0.063ZM19.883,39.367C19.019,39.367 18.175,39.111 17.457,38.631C16.738,38.151 16.179,37.469 15.848,36.671C15.518,35.873 15.431,34.995 15.6,34.148C15.768,33.301 16.184,32.523 16.795,31.912C17.406,31.301 18.184,30.885 19.031,30.717C19.878,30.548 20.756,30.635 21.554,30.965C22.352,31.296 23.034,31.855 23.514,32.574C23.994,33.292 24.25,34.136 24.25,35C24.25,36.158 23.79,37.269 22.971,38.088C22.152,38.907 21.041,39.367 19.883,39.367ZM35,39.367C34.136,39.367 33.292,39.111 32.574,38.631C31.856,38.151 31.296,37.469 30.965,36.671C30.635,35.873 30.548,34.995 30.717,34.148C30.885,33.301 31.301,32.523 31.912,31.912C32.523,31.301 33.301,30.885 34.148,30.717C34.995,30.548 35.873,30.635 36.671,30.965C37.469,31.296 38.151,31.855 38.631,32.574C39.111,33.292 39.367,34.136 39.367,35C39.367,36.158 38.907,37.269 38.088,38.088C37.269,38.907 36.158,39.367 35,39.367ZM50.117,39.367C49.253,39.367 48.409,39.111 47.691,38.631C46.973,38.151 46.413,37.469 46.083,36.671C45.752,35.873 45.665,34.995 45.834,34.148C46.002,33.301 46.418,32.523 47.029,31.912C47.64,31.301 48.418,30.885 49.265,30.717C50.112,30.548 50.99,30.635 51.788,30.965C52.587,31.296 53.268,31.855 53.748,32.574C54.228,33.292 54.484,34.136 54.484,35C54.484,36.158 54.024,37.269 53.205,38.088C52.386,38.907 51.275,39.367 50.117,39.367Z" fill="#043A54"/>
</svg>
