<svg width="44" height="32" viewBox="0 0 44 32" fill="none" xmlns="http://www.w3.org/2000/svg" xmlns:xlink="http://www.w3.org/1999/xlink">
<path d="M0,32L0,26.4C0,25.267 0.292,24.225 0.876,23.276C1.46,22.327 2.235,21.601 3.2,21.1C5.267,20.067 7.367,19.292 9.5,18.776C11.633,18.26 13.8,18.001 16,18C18.2,17.999 20.367,18.257 22.5,18.776C24.633,19.295 26.733,20.069 28.8,21.1C29.767,21.6 30.542,22.325 31.126,23.276C31.71,24.227 32.001,25.268 32,26.4L32,32L0,32ZM36,32L36,26C36,24.533 35.592,23.125 34.776,21.774C33.96,20.423 32.801,19.265 31.3,18.3C33,18.5 34.6,18.842 36.1,19.326C37.6,19.81 39,20.401 40.3,21.1C41.5,21.767 42.417,22.508 43.05,23.324C43.683,24.14 44,25.032 44,26L44,32L36,32ZM16,16C13.8,16 11.917,15.217 10.35,13.65C8.783,12.083 8,10.2 8,8C8,5.8 8.783,3.917 10.35,2.35C11.917,0.783 13.8,0 16,0C18.2,0 20.083,0.783 21.65,2.35C23.217,3.917 24,5.8 24,8C24,10.2 23.217,12.083 21.65,13.65C20.083,15.217 18.2,16 16,16ZM36,8C36,10.2 35.217,12.083 33.65,13.65C32.083,15.217 30.2,16 28,16C27.633,16 27.167,15.959 26.6,15.876C26.033,15.793 25.567,15.701 25.2,15.6C26.1,14.533 26.792,13.35 27.276,12.05C27.76,10.75 28.001,9.4 28,8C27.999,6.6 27.757,5.25 27.276,3.95C26.795,2.65 26.103,1.467 25.2,0.4C25.667,0.233 26.133,0.125 26.6,0.074C27.067,0.023 27.533,-0.001 28,0C30.2,0 32.083,0.783 33.65,2.35C35.217,3.917 36,5.8 36,8ZM4,28L28,28L28,26.4C28,26.033 27.909,25.7 27.726,25.4C27.543,25.1 27.301,24.867 27,24.7C25.2,23.8 23.383,23.125 21.55,22.676C19.717,22.227 17.867,22.001 16,22C14.133,21.999 12.283,22.224 10.45,22.676C8.617,23.128 6.8,23.803 5,24.7C4.7,24.867 4.458,25.1 4.274,25.4C4.09,25.7 3.999,26.033 4,26.4L4,28ZM16,12C17.1,12 18.042,11.609 18.826,10.826C19.61,10.043 20.001,9.101 20,8C19.999,6.899 19.607,5.957 18.826,5.176C18.045,4.395 17.103,4.003 16,4C14.897,3.997 13.956,4.389 13.176,5.176C12.396,5.963 12.004,6.904 12,8C11.996,9.096 12.388,10.038 13.176,10.826C13.964,11.614 14.905,12.005 16,12Z" fill="#000000"/>
</svg>
