<svg width="80" height="74" viewBox="0 0 80 74" fill="none" xmlns="http://www.w3.org/2000/svg" xmlns:xlink="http://www.w3.org/1999/xlink">
<path d="M14.737,56.448C16.865,55.855 18.108,53.648 17.514,51.521C16.921,49.393 14.714,48.149 12.586,48.743L14.737,56.448ZM65.413,48.743C63.285,48.149 61.078,49.392 60.484,51.52C59.89,53.648 61.134,55.854 63.262,56.448L65.413,48.743ZM12.586,48.743C9.152,49.701 6.082,50.916 3.779,52.436C1.634,53.851 -0.834,56.213 -0.834,59.667L7.166,59.667C7.166,60.361 6.703,60.091 8.185,59.113C9.507,58.24 11.686,57.3 14.737,56.448L12.586,48.743ZM-0.834,59.667C-0.834,63.123 1.634,65.484 3.779,66.899C6.083,68.419 9.152,69.633 12.586,70.591C19.51,72.524 28.847,73.667 38.999,73.667L38.999,65.667C29.361,65.667 20.781,64.573 14.736,62.886C11.686,62.035 9.508,61.094 8.185,60.221C6.703,59.244 7.166,58.974 7.166,59.667L-0.834,59.667ZM38.999,73.667C49.151,73.667 58.488,72.524 65.413,70.591C68.847,69.633 71.916,68.419 74.22,66.899C76.365,65.484 78.833,63.123 78.833,59.667L70.833,59.667C70.833,58.974 71.295,59.244 69.814,60.221C68.491,61.094 66.313,62.035 63.262,62.886C57.218,64.573 48.638,65.667 38.999,65.667L38.999,73.667ZM78.833,59.667C78.833,56.212 76.364,53.851 74.219,52.436C71.916,50.916 68.846,49.702 65.413,48.743L63.262,56.448C66.312,57.3 68.49,58.24 69.814,59.113C71.296,60.091 70.833,60.361 70.833,59.667L78.833,59.667Z" fill="#E0E0E0"/>
<path d="M38.999,56.334L36.921,59.752C38.197,60.528 39.8,60.528 41.077,59.752L38.999,56.334ZM38.999,56.334C41.077,59.752 41.078,59.751 41.079,59.75C41.079,59.75 41.08,59.749 41.081,59.749C41.083,59.748 41.085,59.746 41.088,59.745C41.093,59.742 41.099,59.738 41.107,59.733C41.123,59.723 41.145,59.71 41.171,59.693C41.225,59.66 41.3,59.613 41.396,59.553C41.586,59.433 41.858,59.259 42.199,59.035C42.879,58.586 43.84,57.935 44.986,57.104C47.272,55.446 50.335,53.048 53.414,50.094C59.351,44.398 66.29,35.749 66.29,25.804L58.29,25.804C58.29,32.229 53.584,38.845 47.875,44.321C45.132,46.953 42.371,49.118 40.29,50.627C39.253,51.379 38.393,51.962 37.8,52.352C37.504,52.547 37.275,52.693 37.125,52.788C37.05,52.836 36.994,52.87 36.959,52.892C36.942,52.903 36.93,52.91 36.924,52.914C36.921,52.916 36.919,52.917 36.918,52.917C36.918,52.917 36.918,52.917 36.918,52.917C36.919,52.917 36.919,52.917 36.919,52.917C36.92,52.916 36.921,52.916 38.999,56.334ZM66.29,25.804C66.29,11.565 53.698,0.667 38.999,0.667L38.999,8.667C50.028,8.667 58.29,16.696 58.29,25.804L66.29,25.804ZM38.999,0.667C24.3,0.667 11.707,11.565 11.707,25.804L19.707,25.804C19.707,16.696 27.969,8.667 38.999,8.667L38.999,0.667ZM11.707,25.804C11.707,35.749 18.646,44.398 24.584,50.094C27.663,53.048 30.725,55.446 33.011,57.104C34.158,57.935 35.118,58.586 35.799,59.035C36.139,59.259 36.411,59.433 36.602,59.553C36.697,59.613 36.772,59.66 36.826,59.693C36.853,59.71 36.874,59.723 36.89,59.733C36.898,59.738 36.904,59.742 36.91,59.745C36.912,59.746 36.914,59.748 36.916,59.749C36.917,59.749 36.918,59.75 36.919,59.75C36.92,59.751 36.921,59.752 38.999,56.334C41.077,52.916 41.077,52.916 41.078,52.917C41.078,52.917 41.079,52.917 41.079,52.917C41.079,52.917 41.079,52.917 41.079,52.917C41.079,52.917 41.077,52.916 41.074,52.914C41.067,52.91 41.055,52.903 41.038,52.892C41.003,52.87 40.948,52.836 40.873,52.788C40.722,52.693 40.493,52.547 40.197,52.352C39.604,51.962 38.744,51.379 37.707,50.627C35.626,49.118 32.866,46.953 30.122,44.321C24.414,38.845 19.707,32.229 19.707,25.804L11.707,25.804Z" fill="#E0E0E0"/>
<path d="M38.999,18L38.999,14L38.999,18ZM38.999,38.667C42.347,38.667 45.61,37.432 48.058,35.155L42.609,29.297C41.698,30.145 40.404,30.667 38.999,30.667L38.999,38.667ZM48.058,35.155C50.517,32.868 51.958,29.702 51.958,26.333L43.958,26.333C43.958,27.385 43.511,28.458 42.609,29.297L48.058,35.155ZM51.958,26.333C51.958,22.965 50.517,19.799 48.058,17.512L42.609,23.37C43.511,24.208 43.958,25.281 43.958,26.333L51.958,26.333ZM48.058,17.512C45.61,15.234 42.347,14 38.999,14L38.999,22C40.404,22 41.698,22.522 42.609,23.37L48.058,17.512ZM38.999,14C35.652,14 32.389,15.234 29.94,17.512L35.389,23.37C36.301,22.522 37.595,22 38.999,22L38.999,14ZM29.94,17.512C27.482,19.799 26.041,22.965 26.041,26.333L34.041,26.333C34.041,25.281 34.488,24.208 35.389,23.37L29.94,17.512ZM26.041,26.333C26.041,29.702 27.482,32.868 29.94,35.155L35.389,29.297C34.488,28.458 34.041,27.385 34.041,26.333L26.041,26.333ZM29.94,35.155C32.389,37.432 35.652,38.667 38.999,38.667L38.999,30.667C37.595,30.667 36.301,30.145 35.389,29.297L29.94,35.155Z" fill="#E0E0E0"/>
</svg>
