<svg width="52" height="52" viewBox="0 0 52 52" fill="none" xmlns="http://www.w3.org/2000/svg" xmlns:xlink="http://www.w3.org/1999/xlink">
<path d="M6,4L46,4L46,0L6,0L6,4ZM46,4C47.105,4 48,4.895 48,6L52,6C52,2.686 49.314,0 46,0L46,4ZM48,6L48,46L52,46L52,6L48,6ZM48,46C48,47.105 47.105,48 46,48L46,52C49.314,52 52,49.314 52,46L48,46ZM46,48L6,48L6,52L46,52L46,48ZM6,48C4.895,48 4,47.105 4,46L0,46C0,49.314 2.686,52 6,52L6,48ZM4,46L4,6L0,6L0,46L4,46ZM4,6C4,4.895 4.895,4 6,4L6,0C2.686,0 0,2.686 0,6L4,6Z" fill="#000000"/>
<path d="M28.001,15.334C28.001,14.229 27.105,13.334 26.001,13.334C24.896,13.334 24.001,14.229 24.001,15.334L28.001,15.334ZM24.001,36.667C24.001,37.772 24.896,38.667 26.001,38.667C27.105,38.667 28.001,37.772 28.001,36.667L24.001,36.667ZM15.334,24.001C14.229,24.001 13.334,24.896 13.334,26.001C13.334,27.105 14.229,28.001 15.334,28.001L15.334,24.001ZM36.667,28.001C37.772,28.001 38.667,27.105 38.667,26.001C38.667,24.896 37.772,24.001 36.667,24.001L36.667,28.001ZM24.001,15.334L24.001,36.667L28.001,36.667L28.001,15.334L24.001,15.334ZM15.334,28.001L36.667,28.001L36.667,24.001L15.334,24.001L15.334,28.001Z" fill="#000000"/>
</svg>
