<svg width="52" height="44" viewBox="0 0 52 44" fill="none" xmlns="http://www.w3.org/2000/svg" xmlns:xlink="http://www.w3.org/1999/xlink">
<path d="M48.431,0L3.569,0C2.622,0 1.714,0.377 1.045,1.049C0.376,1.721 0,2.632 0,3.581L0,40.419C0,41.368 0.376,42.279 1.045,42.951C1.714,43.623 2.622,44 3.569,44L6.982,44C7.271,44 7.555,43.917 7.799,43.762C8.044,43.607 8.239,43.385 8.363,43.123C9.396,40.934 11.027,39.084 13.066,37.789C15.105,36.493 17.469,35.806 19.882,35.806C22.296,35.806 24.659,36.493 26.699,37.789C28.738,39.084 30.369,40.934 31.401,43.123C31.525,43.385 31.721,43.607 31.966,43.762C32.21,43.917 32.494,44 32.783,44L48.431,44C49.378,44 50.286,43.623 50.955,42.951C51.624,42.279 52,41.368 52,40.419L52,3.581C52,2.632 51.624,1.721 50.955,1.049C50.286,0.377 49.378,0 48.431,0ZM13.255,26.093C13.255,24.778 13.644,23.492 14.372,22.398C15.1,21.304 16.135,20.452 17.346,19.948C18.557,19.445 19.89,19.313 21.175,19.57C22.461,19.826 23.642,20.46 24.569,21.39C25.496,22.32 26.127,23.505 26.382,24.795C26.638,26.086 26.507,27.423 26.005,28.638C25.504,29.854 24.654,30.892 23.564,31.623C22.474,32.354 21.193,32.744 19.882,32.744C18.125,32.744 16.439,32.043 15.196,30.796C13.953,29.549 13.255,27.857 13.255,26.093ZM48.941,40.419C48.941,40.554 48.887,40.684 48.792,40.78C48.696,40.876 48.567,40.93 48.431,40.93L33.716,40.93C31.933,37.718 29.098,35.223 25.692,33.867C27.319,32.643 28.521,30.937 29.127,28.989C29.734,27.042 29.715,24.952 29.072,23.016C28.429,21.08 27.196,19.396 25.547,18.203C23.897,17.01 21.916,16.368 19.882,16.368C17.849,16.368 15.867,17.01 14.218,18.203C12.569,19.396 11.335,21.08 10.693,23.016C10.05,24.952 10.031,27.042 10.637,28.989C11.244,30.937 12.446,32.643 14.073,33.867C10.667,35.223 7.832,37.718 6.049,40.93L3.569,40.93C3.433,40.93 3.304,40.876 3.208,40.78C3.113,40.684 3.059,40.554 3.059,40.419L3.059,3.581C3.059,3.446 3.113,3.316 3.208,3.22C3.304,3.124 3.433,3.07 3.569,3.07L48.431,3.07C48.567,3.07 48.696,3.124 48.792,3.22C48.887,3.316 48.941,3.446 48.941,3.581L48.941,40.419ZM43.843,9.721L43.843,34.279C43.843,34.686 43.682,35.077 43.395,35.364C43.108,35.652 42.719,35.814 42.314,35.814L38.235,35.814C37.83,35.814 37.441,35.652 37.154,35.364C36.867,35.077 36.706,34.686 36.706,34.279C36.706,33.872 36.867,33.482 37.154,33.194C37.441,32.906 37.83,32.744 38.235,32.744L40.784,32.744L40.784,11.256L11.216,11.256L11.216,13.814C11.216,14.221 11.055,14.611 10.768,14.899C10.481,15.187 10.092,15.349 9.686,15.349C9.281,15.349 8.892,15.187 8.605,14.899C8.318,14.611 8.157,14.221 8.157,13.814L8.157,9.721C8.157,9.314 8.318,8.923 8.605,8.636C8.892,8.348 9.281,8.186 9.686,8.186L42.314,8.186C42.719,8.186 43.108,8.348 43.395,8.636C43.682,8.923 43.843,9.314 43.843,9.721Z" fill="#000000"/>
</svg>
