<svg width="48" height="32" viewBox="0 0 48 32" fill="none" xmlns="http://www.w3.org/2000/svg" xmlns:xlink="http://www.w3.org/1999/xlink">
<path d="M25,15.9C25.967,14.833 26.709,13.617 27.226,12.25C27.743,10.883 28.001,9.467 28,8C27.999,6.533 27.741,5.117 27.226,3.75C26.711,2.383 25.969,1.167 25,0.1C27,0.367 28.667,1.25 30,2.75C31.333,4.25 32,6 32,8C32,10 31.333,11.75 30,13.25C28.667,14.75 27,15.633 25,15.9ZM36,32L36,26C36,24.8 35.733,23.658 35.2,22.574C34.667,21.49 33.967,20.532 33.1,19.7C34.8,20.3 36.375,21.075 37.826,22.026C39.277,22.977 40.001,24.301 40,26L40,32L36,32ZM40,18L40,14L36,14L36,10L40,10L40,6L44,6L44,10L48,10L48,14L44,14L44,18L40,18ZM16,16C13.8,16 11.917,15.217 10.35,13.65C8.783,12.083 8,10.2 8,8C8,5.8 8.783,3.917 10.35,2.35C11.917,0.783 13.8,0 16,0C18.2,0 20.083,0.783 21.65,2.35C23.217,3.917 24,5.8 24,8C24,10.2 23.217,12.083 21.65,13.65C20.083,15.217 18.2,16 16,16ZM0,32L0,26.4C0,25.267 0.292,24.225 0.876,23.276C1.46,22.327 2.235,21.601 3.2,21.1C5.267,20.067 7.367,19.292 9.5,18.776C11.633,18.26 13.8,18.001 16,18C18.2,17.999 20.367,18.257 22.5,18.776C24.633,19.295 26.733,20.069 28.8,21.1C29.767,21.6 30.542,22.325 31.126,23.276C31.71,24.227 32.001,25.268 32,26.4L32,32L0,32Z" fill="#000000"/>
</svg>
