<svg width="46" height="26" viewBox="0 0 46 26" fill="none" xmlns="http://www.w3.org/2000/svg" xmlns:xlink="http://www.w3.org/1999/xlink">
<path d="M24.358,24.357C23.733,24.982 22.885,25.333 22.002,25.333C21.118,25.333 20.27,24.982 19.645,24.357L0.788,5.5C0.47,5.193 0.216,4.825 0.041,4.419C-0.134,4.012 -0.226,3.574 -0.229,3.132C-0.233,2.689 -0.149,2.25 0.019,1.841C0.186,1.431 0.434,1.059 0.747,0.746C1.06,0.433 1.432,0.185 1.842,0.018C2.251,-0.15 2.69,-0.234 3.133,-0.23C3.575,-0.226 4.013,-0.135 4.419,0.04C4.826,0.215 5.194,0.469 5.501,0.787L22.002,17.287L38.502,0.787C39.13,0.18 39.972,-0.156 40.846,-0.148C41.72,-0.141 42.556,0.21 43.174,0.828C43.792,1.446 44.143,2.282 44.15,3.156C44.158,4.03 43.822,4.872 43.215,5.5L24.358,24.357Z" clip-rule="evenodd" fill-rule="evenodd" fill="#000000"/>
</svg>
