<svg width="88" height="94" viewBox="0 0 88 94" fill="none" xmlns="http://www.w3.org/2000/svg" xmlns:xlink="http://www.w3.org/1999/xlink">
<path d="M84.25,14.625C85.355,14.625 86.25,13.73 86.25,12.625C86.25,11.52 85.355,10.625 84.25,10.625L84.25,14.625ZM1.75,10.625C0.645,10.625 -0.25,11.52 -0.25,12.625C-0.25,13.73 0.645,14.625 1.75,14.625L1.75,10.625ZM84.25,49C85.355,49 86.25,48.104 86.25,47C86.25,45.896 85.355,45 84.25,45L84.25,49ZM1.75,45C0.645,45 -0.25,45.896 -0.25,47C-0.25,48.104 0.645,49 1.75,49L1.75,45ZM84.25,83.375C85.355,83.375 86.25,82.479 86.25,81.375C86.25,80.271 85.355,79.375 84.25,79.375L84.25,83.375ZM1.75,79.375C0.645,79.375 -0.25,80.271 -0.25,81.375C-0.25,82.479 0.645,83.375 1.75,83.375L1.75,79.375ZM72.5,2.313C72.5,1.208 71.605,0.313 70.5,0.313C69.395,0.313 68.5,1.208 68.5,2.313L72.5,2.313ZM68.5,22.938C68.5,24.042 69.395,24.938 70.5,24.938C71.605,24.938 72.5,24.042 72.5,22.938L68.5,22.938ZM17.5,36.688C17.5,35.583 16.605,34.688 15.5,34.688C14.395,34.688 13.5,35.583 13.5,36.688L17.5,36.688ZM13.5,57.313C13.5,58.417 14.395,59.313 15.5,59.313C16.605,59.313 17.5,58.417 17.5,57.313L13.5,57.313ZM58.75,71.063C58.75,69.958 57.855,69.063 56.75,69.063C55.645,69.063 54.75,69.958 54.75,71.063L58.75,71.063ZM54.75,91.688C54.75,92.792 55.645,93.688 56.75,93.688C57.855,93.688 58.75,92.792 58.75,91.688L54.75,91.688ZM84.25,10.625L1.75,10.625L1.75,14.625L84.25,14.625L84.25,10.625ZM84.25,45L1.75,45L1.75,49L84.25,49L84.25,45ZM84.25,79.375L1.75,79.375L1.75,83.375L84.25,83.375L84.25,79.375ZM68.5,2.313L68.5,22.938L72.5,22.938L72.5,2.313L68.5,2.313ZM13.5,36.688L13.5,57.313L17.5,57.313L17.5,36.688L13.5,36.688ZM54.75,71.063L54.75,91.688L58.75,91.688L58.75,71.063L54.75,71.063Z" fill="#FFFFFF"/>
</svg>
